<svg width="58" height="33" viewBox="0 0 58 33" fill="none" xmlns="http://www.w3.org/2000/svg">
<path d="M26.1211 0.347656V9.48828H30.5508V12.7578H26.1211V23.2695H22.1484V0.347656H26.1211ZM17.4727 2.77344C17.4727 11.2109 11.9883 17.2227 2.56641 19.9648L0.949219 16.8711C8.20898 14.7793 12.5332 10.8242 13.2188 5.97266H2.28516V2.77344H17.4727ZM27.3164 28.332V31.4961H5.69531V20.9141H9.66797V28.332H27.3164ZM43.1156 4.88281C43.1156 9.06641 45.7172 13.0039 50.7797 14.5859L48.8461 17.6797C45.1723 16.4492 42.5531 14.041 41.1469 10.9297C39.6879 14.2695 37.0336 16.9238 33.2719 18.207L31.3031 15.1484C36.4359 13.3906 39.0727 9.20703 39.0727 4.88281V1.85938H43.1156V4.88281ZM57.7406 20.8086V32.1289H53.8031V23.9375H36.0492V20.8086H57.7406ZM57.7406 0.347656V19.3672H53.8031V0.347656H57.7406Z" fill="#FFF9EA"/>
</svg>
