<svg width="61" height="33" viewBox="0 0 61 33" fill="none" xmlns="http://www.w3.org/2000/svg">
<path d="M27.0047 0.382812V23.6914H23.1023V13.0039H16.9852V9.76953H23.1023V0.382812H27.0047ZM17.1961 2.77344C17.1961 11.1406 11.6414 17.4336 2.46563 20.3516L0.813282 17.2227C7.66875 15.043 12.1863 11 12.9422 5.97266H2.46563V2.77344H17.1961ZM27.8133 28.332V31.4961H6.29766V21.3359H10.2703V28.332H27.8133ZM55.6711 0.347656V8.08203H60.1008V11.2812H55.6711V18.9805H51.7688V0.347656H55.6711ZM46.882 2.52734C46.882 10.8945 41.4328 16.8008 32.0461 19.4727L30.4992 16.3086C37.7063 14.3398 41.9777 10.4551 42.6633 5.69141H31.9406V2.52734H46.882ZM45.4055 19.3672C51.8391 19.3672 56.0227 21.8281 56.0227 25.7305C56.0227 29.7031 51.8391 32.0938 45.4055 32.0938C39.007 32.0938 34.7531 29.7031 34.7883 25.7305C34.7531 21.8281 39.007 19.3672 45.4055 19.3672ZM45.4055 22.4258C41.2219 22.4258 38.6203 23.6211 38.6555 25.7305C38.6203 27.8047 41.2219 29.0352 45.4055 29.0352C49.5891 29.0352 52.1906 27.8047 52.1906 25.7305C52.1906 23.6211 49.5891 22.4258 45.4055 22.4258Z" fill="#FFF9EA"/>
</svg>
