<svg width="58" height="33" viewBox="0 0 58 33" fill="none" xmlns="http://www.w3.org/2000/svg">
<path d="M8.93438 2.66797C13.7156 2.66797 17.1609 7.02734 17.1961 13.8828C17.1609 20.8086 13.7156 25.1328 8.93438 25.1328C4.11797 25.1328 0.637501 20.8086 0.672657 13.8828C0.637501 7.02734 4.11797 2.66797 8.93438 2.66797ZM8.93438 6.18359C6.2625 6.18359 4.43438 9.03125 4.43438 13.8828C4.43438 18.7695 6.2625 21.6172 8.93438 21.6172C11.6414 21.6172 13.4344 18.7695 13.4344 13.8828C13.4344 9.03125 11.6414 6.18359 8.93438 6.18359ZM29.993 7.94141V11.2109H25.282V17.3281H29.993V20.5273H25.282V32.1289H21.3797V0.347656H25.282V7.94141H29.993ZM42.4523 4.88281C42.4523 9.06641 45.0539 13.0039 50.1164 14.5859L48.1828 17.6797C44.509 16.4492 41.8898 14.041 40.4836 10.9297C39.0246 14.2695 36.3703 16.9238 32.6086 18.207L30.6398 15.1484C35.7727 13.3906 38.4094 9.20703 38.4094 4.88281V1.85938H42.4523V4.88281ZM57.0773 20.8086V32.1289H53.1398V23.9375H35.3859V20.8086H57.0773ZM57.0773 0.347656V19.3672H53.1398V0.347656H57.0773Z" fill="#FFF9EA"/>
</svg>
