<svg width="353" height="61" viewBox="0 0 353 61" fill="none" xmlns="http://www.w3.org/2000/svg">
<path d="M0.1875 48V2.75H17.5C27.3125 2.75 32.1875 7.75 32.1875 14.5C32.1875 20 28.6875 23.0625 24.25 24.125V24.5625C29.0625 24.8125 33.9375 28.8125 33.9375 35.6875C33.9375 42.75 28.875 48 18.5 48H0.1875ZM17.25 41.1875C23.1875 41.1875 25.6875 38.625 25.6875 35.0625C25.6875 31 22.5 27.875 17.4375 27.875H8.3125V41.1875H17.25ZM16.5 22C20.8125 22 24.0625 19.5 24.0625 15.5C24.0625 12 21.5625 9.5 16.6875 9.5H8.3125V22H16.5ZM38.9625 48V2.75H68.4V9.5625H47.0875V21.9375H66.8375V28.75H47.0875V41.125H68.525V48H38.9625ZM99.2375 15.1875C98.8625 11.3125 95.55 9.0625 90.675 9.0625C85.55 9.0625 82.425 11.5625 82.425 14.9375C82.425 18.75 86.425 20.3125 90.175 21.1875L94.425 22.3125C101.175 23.875 107.675 27.4375 107.675 35.3125C107.675 43.25 101.425 48.6875 90.55 48.6875C79.9875 48.6875 73.3625 43.625 72.9875 34.6875H80.9875C81.3625 39.4375 85.3625 41.75 90.4875 41.75C95.8625 41.75 99.55 39.125 99.55 35.25C99.55 31.6875 96.2375 30.1875 91.3625 28.9375L86.2375 27.625C78.8 25.6875 74.175 21.9375 74.175 15.4375C74.175 7.4375 81.3 2.125 90.8 2.125C100.425 2.125 106.925 7.5625 107.05 15.1875H99.2375ZM110.825 9.5625V2.75H146.887V9.5625H132.95V48H124.825V9.5625H110.825ZM165.25 48V2.75H182.25C192.625 2.75 198.188 8.5625 198.188 17.1875C198.188 23.3438 195.375 27.9062 190.062 30.0625L199.812 48H190.75L181.875 31.4375H173.375V48H165.25ZM173.375 24.625H181C187.125 24.625 189.875 22 189.875 17.1875C189.875 12.375 187.125 9.5625 181 9.5625H173.375V24.625ZM217.775 48.6875C207.525 48.6875 201.275 41.875 201.275 31.25C201.275 20.75 207.65 13.625 217.337 13.625C225.65 13.625 232.837 18.8125 232.837 30.75V33.25H209.15C209.244 39.0312 212.65 42.4375 217.837 42.4375C221.337 42.4375 223.712 40.9375 224.712 38.9375H232.525C231.087 44.8125 225.65 48.6875 217.775 48.6875ZM209.212 27.8125H225.212C225.15 23.1875 222.087 19.8125 217.462 19.8125C212.65 19.8125 209.462 23.4688 209.212 27.8125ZM252.238 48.6875C242.113 48.6875 235.988 41.4375 235.988 31.1875C235.988 20.8125 242.3 13.625 252.238 13.625C260.488 13.625 266.238 18.4375 266.8 25.75H259.175C258.55 22.5 256.175 20 252.3 20C247.363 20 244.05 24.1875 244.05 31C244.05 38 247.3 42.1875 252.3 42.1875C255.863 42.1875 258.488 40.125 259.175 36.4375H266.8C266.175 43.625 260.738 48.6875 252.238 48.6875ZM271.2 48V14.0625H279.2V48H271.2ZM275.263 9.25C272.763 9.25 270.638 7.3125 270.638 4.875C270.638 2.5 272.763 0.5625 275.263 0.5625C277.825 0.5625 279.888 2.5 279.888 4.875C279.888 7.3125 277.825 9.25 275.263 9.25ZM285.225 60.75V14.0625H293.038V19.625H293.538C294.788 17.1875 297.288 13.625 303.288 13.625C311.1 13.625 317.288 19.75 317.288 31.0625C317.288 42.25 311.288 48.625 303.288 48.625C297.413 48.625 294.788 45.125 293.538 42.625H293.225V60.75H285.225ZM293.038 31C293.038 37.625 295.913 42.0625 301.1 42.0625C306.35 42.0625 309.163 37.4375 309.163 31C309.163 24.6875 306.413 20.125 301.1 20.125C295.913 20.125 293.038 24.4375 293.038 31ZM337 48.6875C326.75 48.6875 320.5 41.875 320.5 31.25C320.5 20.75 326.875 13.625 336.562 13.625C344.875 13.625 352.062 18.8125 352.062 30.75V33.25H328.375C328.469 39.0312 331.875 42.4375 337.062 42.4375C340.562 42.4375 342.938 40.9375 343.938 38.9375H351.75C350.312 44.8125 344.875 48.6875 337 48.6875ZM328.438 27.8125H344.438C344.375 23.1875 341.312 19.8125 336.688 19.8125C331.875 19.8125 328.688 23.4688 328.438 27.8125Z" fill="#FFF9EA"/>
</svg>
