<svg width="492" height="32" viewBox="0 0 492 32" fill="none" xmlns="http://www.w3.org/2000/svg">
<path d="M23.6992 0.59375V7.66016H28.4102V9.98047H23.6992V16.625H20.957V0.59375H23.6992ZM15.0508 2.66797V15.3945H0.601562V2.66797H15.0508ZM3.30859 4.91797V13.1797H12.3789V4.91797H3.30859ZM5.27734 19.4375V28.7188C7.08789 28.666 9.49609 28.4023 11.7109 27.6641L12.1328 29.8789C9.07422 30.8984 6.12109 31.0039 4.08203 31.0039H2.60547V19.4375H5.27734ZM26.8281 19.7539V21.8633H11.043V19.7539H17.6172V16.9766H20.3242V19.7539H26.8281ZM18.918 22.9883C22.3281 23.0234 24.7539 24.6758 24.7891 27.3828C24.7539 30.0898 22.3281 31.7773 18.918 31.7773C15.4727 31.7773 13.082 30.0898 13.1172 27.3828C13.082 24.6758 15.4727 23.0234 18.918 22.9883ZM18.918 24.957C16.9844 24.957 15.5781 25.9062 15.5781 27.3828C15.5781 28.8594 16.9844 29.8438 18.918 29.8086C20.8867 29.8438 22.2578 28.8594 22.2578 27.3828C22.2578 25.9062 20.8867 24.957 18.918 24.957ZM57.9555 17.082V19.332H29.4789V17.082H57.9555ZM54.7914 28.8594V31.1797H33.1703V22.0742H35.9477V28.8594H54.7914ZM43.7172 1.71875C50.432 1.68359 54.7563 4.00391 54.7563 7.90625C54.7563 11.8086 50.432 14.1289 43.7172 14.1289C36.932 14.1289 32.643 11.8086 32.643 7.90625C32.643 4.00391 36.932 1.68359 43.7172 1.71875ZM43.7172 3.93359C38.6898 3.93359 35.4555 5.44531 35.4906 7.90625C35.4555 10.3672 38.6898 11.8789 43.7172 11.8789C48.7094 11.8789 51.9438 10.3672 51.9438 7.90625C51.9438 5.44531 48.7094 3.93359 43.7172 3.93359ZM78.3039 8.99609C78.3039 14.5156 81.9602 20.1758 86.3898 22.3555L84.7023 24.5703C81.257 22.7598 78.3742 19.0684 77.0031 14.7266C75.5969 19.3496 72.6438 23.2871 69.1281 25.168L67.3703 22.9531C71.9406 20.7031 75.5617 14.6914 75.5969 8.99609V3.30078H78.3039V8.99609ZM92.0148 0.59375V13.2852H97.2531V15.6758H92.0148V31.8477H89.2727V0.59375H92.0148ZM122.474 0.628906V8.64453H127.22V11H122.474V19.2617H119.732V0.628906H122.474ZM122.474 20.8086V31.4258H102.681V20.8086H122.474ZM105.388 22.9531V29.1758H119.802V22.9531H105.388ZM113.545 2.31641V10.8594H102.154V15.2891C107.709 15.2891 111.734 15.1309 116.603 14.3398L116.884 16.5547C111.857 17.4336 107.673 17.6094 101.873 17.6094H99.4469V8.71484H110.838V4.60156H99.3766V2.31641H113.545ZM156.766 13.7422V15.957H128.254V13.7422H156.766ZM153.355 8.92578V11.1758H132.051V1.68359H153.039V3.89844H134.828V8.92578H153.355ZM153.074 18.7695V26.0117H134.512V29.2461H154.023V31.4961H131.77V23.9375H150.367V20.9141H131.699V18.7695H153.074ZM184.237 0.59375V31.918H181.459V0.59375H184.237ZM167.608 3.01953C172.248 3.05469 175.588 7.27344 175.588 13.918C175.588 20.5625 172.248 24.7812 167.608 24.7812C162.932 24.7812 159.627 20.5625 159.627 13.918C159.627 7.27344 162.932 3.05469 167.608 3.01953ZM167.608 5.48047C164.479 5.51562 162.299 8.82031 162.299 13.918C162.299 19.0156 164.479 22.3203 167.608 22.3203C170.737 22.3203 172.916 19.0156 172.916 13.918C172.916 8.82031 170.737 5.51562 167.608 5.48047ZM207.503 6.5C207.503 10.8594 210.667 14.9727 215.238 16.625L213.691 18.7695C210.263 17.3984 207.538 14.6738 206.202 11.2812C204.866 15.0605 202.019 18.0664 198.327 19.543L196.851 17.293C201.527 15.5703 204.761 11.2109 204.796 6.39453V2.52734H207.503V6.5ZM222.726 0.628906V24.043H219.948V10.2969H212.988V7.97656H219.948V0.628906H222.726ZM223.429 28.8594V31.1797H202.511V21.3711H205.288V28.8594H223.429ZM240.564 2.87891V5.19922H231.072V9.10156H240.212V11.2812H231.072V15.6055C235.625 15.5879 238.472 15.4297 241.83 14.7617L242.111 17.0469C238.455 17.75 235.502 17.9258 230.404 17.9258H228.435V2.87891H240.564ZM253.572 0.628906V19.5781H250.935V11.0352H246.541V19.3672H243.974V1.22656H246.541V8.78516H250.935V0.628906H253.572ZM253.572 21.1953V31.8477H250.865V23.4453H232.513V21.1953H253.572ZM281.676 0.628906V10.9297H286.387V13.25H281.676V24.043H278.934V0.628906H281.676ZM275.945 4.46094V6.71094H257.312V4.46094H265.258V0.628906H268V4.46094H275.945ZM266.629 8.43359C271.094 8.43359 274.117 10.7188 274.152 14.2695C274.117 17.7852 271.094 20.0352 266.629 20.0352C262.129 20.0352 259.07 17.7852 259.105 14.2695C259.07 10.7188 262.129 8.43359 266.629 8.43359ZM266.629 10.6133C263.676 10.6133 261.707 12.0547 261.742 14.2695C261.707 16.4844 263.676 17.8906 266.629 17.8555C269.547 17.8906 271.516 16.4844 271.551 14.2695C271.516 12.0547 269.547 10.6133 266.629 10.6133ZM283.117 28.8594V31.1797H262.129V22.1797H264.836V28.8594H283.117ZM297.138 29V3.54688H306.067C311.411 3.54688 313.907 6.53516 313.907 10.2969C313.907 13.5664 311.973 15.043 309.759 15.6406V15.8867C312.114 16.0273 314.927 18.207 314.927 22.25C314.927 26.082 312.395 29 306.384 29H297.138ZM306.348 26.1875C310.321 26.1875 311.868 24.4297 311.868 22.2148C311.868 19.6133 309.794 17.4336 306.524 17.4336H300.302V26.1875H306.348ZM305.962 14.6914C308.704 14.6914 310.884 13.0039 310.884 10.332C310.884 8.11719 309.407 6.35938 306.067 6.35938H300.302V14.6914H305.962ZM318.527 29V3.54688H333.96V6.35938H321.691V14.8672H333.152V17.6445H321.691V26.1875H334.136V29H318.527ZM351.939 9.94531C351.658 7.44922 349.373 6.00781 346.314 6.00781C342.939 6.00781 340.724 7.76562 340.724 10.1914C340.724 12.8633 343.712 13.8477 345.646 14.3398L348.177 15.043C350.92 15.7461 355.384 17.3281 355.384 22.0742C355.384 26.2227 352.045 29.457 346.138 29.457C340.654 29.457 337.244 26.6094 336.962 22.3906H340.197C340.478 25.2383 343.115 26.5742 346.138 26.5742C349.654 26.5742 352.291 24.7812 352.291 22.0039C352.291 19.543 349.935 18.5938 347.263 17.8203L344.134 16.9766C340.127 15.8164 337.666 13.7773 337.666 10.332C337.666 6.04297 341.498 3.19531 346.42 3.19531C351.341 3.19531 354.892 6.07812 355.033 9.94531H351.939ZM357.613 6.35938V3.54688H376.809V6.35938H368.828V29H365.629V6.35938H357.613ZM398.915 4.07422V14.8672H390.442V21.8281C394.046 21.8105 397.456 21.6875 401.622 20.9492L401.833 23.2344C397.368 24.043 393.817 24.1133 389.845 24.1484H387.77V12.582H396.278V6.35938H387.7V4.07422H398.915ZM413.434 0.59375V31.8477H410.798V0.59375H413.434ZM407.036 1.36719V30.1953H404.434V14.1289H400.427V11.8789H404.434V1.36719H407.036ZM428.038 8.99609C428.003 14.6914 431.905 20.457 436.511 22.5312L434.823 24.7109C431.273 22.9707 428.196 19.2969 426.702 14.832C425.243 19.5605 422.167 23.498 418.511 25.3438L416.753 23.0234C421.394 20.8789 425.261 14.9375 425.296 8.99609V3.30078H428.038V8.99609ZM442.698 0.59375V31.918H439.921V0.59375H442.698ZM472.982 0.59375V31.8477H470.205V0.59375H472.982ZM465.775 4.00391V6.28906H462.224V21.3359C463.982 21.2129 465.722 21.0547 467.392 20.8438L467.568 22.918C460.748 23.9727 453.224 24.0781 447.423 24.1133L447.107 21.7578L451.431 21.7227V6.28906H447.916V4.00391H465.775ZM454.138 21.6875C455.896 21.6523 457.707 21.582 459.517 21.4766V6.28906H454.138V21.6875ZM490.553 3.54688L490.307 21.8281H487.354L487.108 3.54688H490.553ZM488.83 29.2109C487.6 29.2109 486.545 28.1914 486.58 26.9258C486.545 25.6953 487.6 24.6758 488.83 24.6758C490.061 24.6758 491.08 25.6953 491.08 26.9258C491.08 28.1914 490.061 29.2109 488.83 29.2109Z" fill="#FFF9EA"/>
</svg>
