<svg width="57" height="33" viewBox="0 0 57 33" fill="none" xmlns="http://www.w3.org/2000/svg">
<path d="M8.59766 2.66797C13.3789 2.66797 16.8242 7.02734 16.8594 13.8828C16.8242 20.8086 13.3789 25.1328 8.59766 25.1328C3.78125 25.1328 0.300781 20.8086 0.335938 13.8828C0.300781 7.02734 3.78125 2.66797 8.59766 2.66797ZM8.59766 6.18359C5.92578 6.18359 4.09766 9.03125 4.09766 13.8828C4.09766 18.7695 5.92578 21.6172 8.59766 21.6172C11.3047 21.6172 13.0977 18.7695 13.0977 13.8828C13.0977 9.03125 11.3047 6.18359 8.59766 6.18359ZM24.9453 0.347656V12.5469H29.832V15.8516H24.9453V32.1289H21.043V0.347656H24.9453ZM49.1117 3.72266V6.81641H42.3266C42.3441 10.3496 45.1215 13.8125 50.2016 15.1484L48.3734 18.207C44.6645 17.1875 41.9574 15.0078 40.4633 12.1953C39.0219 15.2715 36.3148 17.6797 32.518 18.8047L30.6898 15.8164C35.6996 14.3047 38.4066 10.5957 38.4242 6.81641H31.6391V3.72266H38.4242V0.242188H42.3617V3.72266H49.1117ZM56.7406 0.382812V19.0508H52.8031V0.382812H56.7406ZM56.7406 20.4922V31.7422H35.6469V20.4922H56.7406ZM39.5141 23.6211V28.5781H52.9086V23.6211H39.5141Z" fill="#FFF9EA"/>
</svg>
