<svg width="88" height="33" viewBox="0 0 88 33" fill="none" xmlns="http://www.w3.org/2000/svg">
<path d="M26.898 0.347656V23.832H22.9957V15.5352H18.4957V12.3008H22.9957V9.27734H18.4957V6.11328H22.9957V0.347656H26.898ZM18.0387 2.73828V5.86719H15.2262V15.9922C16.4215 15.9219 17.5816 15.834 18.7066 15.7109L18.8824 18.5586C12.8707 19.543 5.8043 19.6484 0.741798 19.6484L0.319923 16.4141L3.90586 16.3789V5.86719H1.12852V2.73828H18.0387ZM27.7066 28.332V31.4961H6.01524V22.0039H9.95274V28.332H27.7066ZM7.70274 16.3438L11.4645 16.2031V5.86719H7.70274V16.3438ZM40.7988 2.5625C45.8262 2.52734 49.5176 5.72656 49.5527 10.2266C49.5176 14.7617 45.8262 17.9258 40.7988 17.9258C35.8066 17.9258 32.0801 14.7617 32.0801 10.2266C32.0801 5.72656 35.8066 2.52734 40.7988 2.5625ZM40.7988 5.9375C38.0215 5.9375 35.9473 7.58984 35.9473 10.2266C35.9473 12.8984 38.0215 14.5156 40.7988 14.5156C43.6113 14.5156 45.7207 12.8984 45.7207 10.2266C45.7207 7.58984 43.6113 5.9375 40.7988 5.9375ZM56.9707 0.347656V32.1641H53.0684V0.347656H56.9707ZM30.6387 22.3203C36.3691 22.3203 44.3145 22.25 51.1699 21.2656L51.4863 24.1133C44.3496 25.4844 36.7207 25.5195 31.1309 25.5195L30.6387 22.3203ZM87.3246 0.347656V18.8047H83.4223V11.1055H77.9379V7.90625H83.4223V0.347656H87.3246ZM87.3246 20.1758V31.7422H66.1957V20.1758H87.3246ZM70.098 23.2695V28.5781H83.4926V23.2695H70.098ZM72.3832 5.58594C72.3832 9.41797 74.9496 13.3203 79.8715 15.0078L77.9027 18.1016C74.352 16.8887 71.8383 14.4805 70.4496 11.4922C69.0434 14.7969 66.3891 17.4512 62.6449 18.6992L60.641 15.6406C65.7035 13.9531 68.4105 9.76953 68.4105 5.55078V5.30469H61.8012V2.14062H78.9574V5.30469H72.3832V5.58594Z" fill="#FFF9EA"/>
</svg>
