<svg width="402" height="32" viewBox="0 0 402 32" fill="none" xmlns="http://www.w3.org/2000/svg">
<path d="M14.5039 2.63281C21.1484 2.66797 25.9297 5.90234 25.9297 10.8242C25.9297 15.4824 21.7812 18.5762 15.8398 18.9453V25.5195H28.8828V27.8398H0.265625V25.5195H13.1328V18.9453C7.20898 18.5586 3.07812 15.4648 3.07812 10.8242C3.07812 5.90234 7.85938 2.66797 14.5039 2.63281ZM14.5039 4.91797C9.44141 4.91797 5.75 7.30859 5.75 10.8242C5.75 14.4453 9.44141 16.7656 14.5039 16.8008C19.5664 16.7656 23.2578 14.4453 23.2578 10.8242C23.2578 7.30859 19.5664 4.91797 14.5039 4.91797ZM55.6859 8.11719V10.4023H34.3461V1.12109H37.0531V8.11719H55.6859ZM59.0609 13.4961V15.7461H30.4438V13.4961H59.0609ZM55.3695 18.5586V25.8711H36.8773V29.2109H56.4945V31.4258H34.1V23.7617H52.6625V20.7383H34.0297V18.5586H55.3695ZM98.0773 13.0742V15.3945H93.0148V31.8477H90.2727V0.59375H93.0148V13.0742H98.0773ZM72.8703 3.6875V21.582C77.4406 21.5645 82.0988 21.2129 87.2492 20.1406L87.6008 22.4961C82.2219 23.5859 77.3703 23.9023 72.6242 23.9023H70.1281V3.6875H72.8703ZM125.83 0.59375V31.8477H123.158V0.59375H125.83ZM119.537 1.26172V30.2656H116.9V15.0781H112.892C112.593 21.1602 110.009 24.957 106.142 24.957C102.064 24.957 99.4273 20.7383 99.4273 14.0938C99.4273 7.44922 102.064 3.23047 106.142 3.23047C109.939 3.23047 112.505 6.9043 112.857 12.793H116.9V1.26172H119.537ZM106.142 5.83203C103.611 5.83203 101.994 8.99609 102.029 14.0938C101.994 19.1562 103.611 22.3555 106.142 22.3203C108.673 22.3555 110.291 19.1562 110.291 14.0938C110.291 8.99609 108.673 5.83203 106.142 5.83203ZM156.008 0.59375V31.8477H153.371V0.59375H156.008ZM149.434 1.4375V30.2656H146.797V15.6758H140.188C138.271 19.3145 135.266 22.5312 130.906 25.0977L129.289 23.0938C136.092 19.0684 139.502 13.4258 140.012 6.88672H130.625V4.60156H142.754C142.736 7.67773 142.244 10.6484 141.207 13.4258H146.797V1.4375H149.434ZM193.442 0.59375V16.8359H190.665V0.59375H193.442ZM193.442 18.3477V25.8008H175.794V29.2461H194.637V31.4961H173.087V23.7266H190.7V20.5625H172.981V18.3477H193.442ZM185.919 2.73828V4.95312H182.755V12.9336C184.372 12.8457 185.971 12.6875 187.466 12.5117L187.606 14.5508C181.348 15.4648 174.001 15.7109 168.481 15.7109L168.13 13.4258L172.137 13.3906V4.95312H169.009V2.73828H185.919ZM174.809 13.3203C176.532 13.2852 178.307 13.2324 180.083 13.1094V4.95312H174.809V13.3203ZM226.433 25.5195V27.8398H197.816V25.5195H204.917V17.082C202.245 15.6934 200.628 13.4434 200.628 10.6133C200.628 5.76172 205.374 2.59766 212.054 2.5625C218.734 2.59766 223.48 5.76172 223.48 10.6133C223.48 13.3906 221.915 15.623 219.331 17.0117V25.5195H226.433ZM212.054 4.84766C206.921 4.8125 203.3 7.13281 203.3 10.6133C203.3 14.0938 206.921 16.4492 212.054 16.4492C217.152 16.4492 220.808 14.0938 220.808 10.6133C220.808 7.13281 217.152 4.8125 212.054 4.84766ZM207.624 25.5195H216.554V18.0664C215.2 18.4355 213.689 18.6289 212.054 18.6289C210.454 18.6289 208.96 18.4531 207.624 18.1016V25.5195ZM252.462 0.628906V10.9297H257.173V13.25H252.462V24.043H249.72V0.628906H252.462ZM246.732 4.46094V6.71094H228.099V4.46094H236.045V0.628906H238.787V4.46094H246.732ZM237.416 8.43359C241.88 8.43359 244.904 10.7188 244.939 14.2695C244.904 17.7852 241.88 20.0352 237.416 20.0352C232.916 20.0352 229.857 17.7852 229.892 14.2695C229.857 10.7188 232.916 8.43359 237.416 8.43359ZM237.416 10.6133C234.462 10.6133 232.494 12.0547 232.529 14.2695C232.494 16.4844 234.462 17.8906 237.416 17.8555C240.334 17.8906 242.302 16.4844 242.337 14.2695C242.302 12.0547 240.334 10.6133 237.416 10.6133ZM253.904 28.8594V31.1797H232.916V22.1797H235.623V28.8594H253.904ZM278.577 4.07422V14.8672H270.104V21.8281C273.707 21.8105 277.118 21.6875 281.284 20.9492L281.495 23.2344C277.03 24.043 273.479 24.1133 269.506 24.1484H267.432V12.582H275.94V6.35938H267.362V4.07422H278.577ZM293.096 0.59375V31.8477H290.459V0.59375H293.096ZM286.698 1.36719V30.1953H284.096V14.1289H280.088V11.8789H284.096V1.36719H286.698ZM307.7 8.99609C307.665 14.6914 311.567 20.457 316.173 22.5312L314.485 24.7109C310.934 22.9707 307.858 19.2969 306.364 14.832C304.905 19.5605 301.829 23.498 298.173 25.3438L296.415 23.0234C301.055 20.8789 304.923 14.9375 304.958 8.99609V3.30078H307.7V8.99609ZM322.36 0.59375V31.918H319.583V0.59375H322.36ZM352.644 0.59375V31.8477H349.866V0.59375H352.644ZM345.437 4.00391V6.28906H341.886V21.3359C343.644 21.2129 345.384 21.0547 347.054 20.8438L347.23 22.918C340.409 23.9727 332.886 24.0781 327.085 24.1133L326.769 21.7578L331.093 21.7227V6.28906H327.577V4.00391H345.437ZM333.8 21.6875C335.558 21.6523 337.368 21.582 339.179 21.4766V6.28906H333.8V21.6875ZM382.295 10.0859V12.3008H360.884V1.75391H363.627V10.0859H382.295ZM385.599 16.5547V18.8047H356.982V16.5547H385.599ZM382.47 28.7891V31.0742H360.709V22.0039H363.451V28.7891H382.47ZM392.223 21.6523C392.258 16.9414 393.699 15.5 396.125 14.0234C397.566 13.1445 398.691 11.7383 398.691 9.76953C398.691 7.37891 396.828 5.86719 394.508 5.86719C392.504 5.86719 390.5 7.0625 390.289 9.94531H387.09C387.266 5.69141 390.5 3.19531 394.508 3.19531C398.902 3.19531 401.785 6.04297 401.785 9.91016C401.785 12.6523 400.484 14.5859 398.305 15.9219C396.125 17.2578 395.316 18.5938 395.246 21.6523V21.8281H392.223V21.6523ZM393.84 29.2109C392.609 29.2109 391.555 28.1914 391.59 26.9258C391.555 25.6953 392.609 24.6758 393.84 24.6758C395.07 24.6758 396.09 25.6953 396.09 26.9258C396.09 28.1914 395.07 29.2109 393.84 29.2109Z" fill="#3C755F"/>
</svg>
