<svg width="341" height="61" viewBox="0 0 341 61" fill="none" xmlns="http://www.w3.org/2000/svg">
<path d="M37.375 2.75V48H30.125L8.6875 17.0625H8.3125V48H0.1875V2.75H7.5625L28.875 33.6875H29.3125V2.75H37.375ZM44.15 48V2.75H73.5875V9.5625H52.275V21.9375H72.025V28.75H52.275V41.125H73.7125V48H44.15ZM89.3625 48L76.6125 2.75H85.3625L93.55 36.0625H93.9875L102.675 2.75H110.675L119.425 36.125H119.8L127.988 2.75H136.738L123.988 48H115.925L106.863 16.1875H106.55L97.425 48H89.3625ZM153.913 48V2.75H170.913C181.288 2.75 186.85 8.5625 186.85 17.1875C186.85 23.3438 184.038 27.9062 178.725 30.0625L188.475 48H179.413L170.538 31.4375H162.038V48H153.913ZM162.038 24.625H169.663C175.788 24.625 178.538 22 178.538 17.1875C178.538 12.375 175.788 9.5625 169.663 9.5625H162.038V24.625ZM206.438 48.6875C196.188 48.6875 189.938 41.875 189.938 31.25C189.938 20.75 196.312 13.625 206 13.625C214.312 13.625 221.5 18.8125 221.5 30.75V33.25H197.812C197.906 39.0312 201.312 42.4375 206.5 42.4375C210 42.4375 212.375 40.9375 213.375 38.9375H221.188C219.75 44.8125 214.312 48.6875 206.438 48.6875ZM197.875 27.8125H213.875C213.812 23.1875 210.75 19.8125 206.125 19.8125C201.312 19.8125 198.125 23.4688 197.875 27.8125ZM240.9 48.6875C230.775 48.6875 224.65 41.4375 224.65 31.1875C224.65 20.8125 230.962 13.625 240.9 13.625C249.15 13.625 254.9 18.4375 255.462 25.75H247.837C247.212 22.5 244.837 20 240.962 20C236.025 20 232.712 24.1875 232.712 31C232.712 38 235.962 42.1875 240.962 42.1875C244.525 42.1875 247.15 40.125 247.837 36.4375H255.462C254.837 43.625 249.4 48.6875 240.9 48.6875ZM259.862 48V14.0625H267.862V48H259.862ZM263.925 9.25C261.425 9.25 259.3 7.3125 259.3 4.875C259.3 2.5 261.425 0.5625 263.925 0.5625C266.487 0.5625 268.55 2.5 268.55 4.875C268.55 7.3125 266.487 9.25 263.925 9.25ZM273.888 60.75V14.0625H281.7V19.625H282.2C283.45 17.1875 285.95 13.625 291.95 13.625C299.763 13.625 305.95 19.75 305.95 31.0625C305.95 42.25 299.95 48.625 291.95 48.625C286.075 48.625 283.45 45.125 282.2 42.625H281.888V60.75H273.888ZM281.7 31C281.7 37.625 284.575 42.0625 289.763 42.0625C295.013 42.0625 297.825 37.4375 297.825 31C297.825 24.6875 295.075 20.125 289.763 20.125C284.575 20.125 281.7 24.4375 281.7 31ZM325.663 48.6875C315.413 48.6875 309.163 41.875 309.163 31.25C309.163 20.75 315.538 13.625 325.225 13.625C333.538 13.625 340.725 18.8125 340.725 30.75V33.25H317.038C317.131 39.0312 320.538 42.4375 325.725 42.4375C329.225 42.4375 331.6 40.9375 332.6 38.9375H340.413C338.975 44.8125 333.538 48.6875 325.663 48.6875ZM317.1 27.8125H333.1C333.038 23.1875 329.975 19.8125 325.35 19.8125C320.538 19.8125 317.35 23.4688 317.1 27.8125Z" fill="#3C755F"/>
</svg>
