<svg width="382" height="61" viewBox="0 0 382 61" fill="none" xmlns="http://www.w3.org/2000/svg">
<path d="M0.0625 10.5V2.75H37.125V10.5H23.25V48H13.9375V10.5H0.0625ZM51.4625 48.6875C41.2125 48.6875 34.8375 41.625 34.8375 31.125C34.8375 20.625 41.2125 13.625 51.4625 13.625C61.7125 13.625 68.15 20.625 68.15 31.125C68.15 41.625 61.7125 48.6875 51.4625 48.6875ZM51.525 41.5C56.275 41.5 58.7125 37.0625 58.7125 31.125C58.7125 25.125 56.275 20.6875 51.525 20.6875C46.7125 20.6875 44.2125 25.125 44.2125 31.125C44.2125 37.0625 46.7125 41.5 51.525 41.5ZM84.8625 48.5625C77.1125 48.5625 71.05 42.375 71.05 31.0625C71.05 19.4375 77.3625 13.625 84.8625 13.625C90.55 13.625 93.2375 17 94.4875 19.75H94.8V2.75H104.05V48H94.925V42.5625H94.4875C93.175 45.375 90.3625 48.5625 84.8625 48.5625ZM87.7375 41.1875C92.3625 41.1875 94.9875 37.125 94.9875 31C94.9875 24.875 92.3625 21 87.7375 21C83.05 21 80.55 25.0625 80.55 31C80.55 37 83.05 41.1875 87.7375 41.1875ZM108.262 38.5C108.262 30.9375 114.387 28.4375 120.887 28.0625C123.325 27.9062 127.887 27.6875 129.325 27.625V24.875C129.262 22.0625 127.325 20.375 123.887 20.375C120.762 20.375 118.762 21.8125 118.262 24.125H109.45C110.012 18.25 115.137 13.625 124.137 13.625C131.512 13.625 138.512 16.9375 138.512 25.125V48H129.762V43.3125H129.512C127.825 46.4375 124.637 48.625 119.575 48.625C113.075 48.625 108.262 45.25 108.262 38.5ZM117.137 38.25C117.137 40.875 119.262 42.25 122.2 42.25C126.387 42.25 129.387 39.4375 129.325 35.875V33.375C127.919 33.4375 123.981 33.6562 122.387 33.8125C119.2 34.125 117.137 35.625 117.137 38.25ZM148.163 60.75C146.35 60.75 144.663 60.6875 143.475 60.5625V53.375C144.663 53.4375 146.038 53.5 147.225 53.5C149.038 53.5 150.538 53.3125 151.663 50.375L152.225 48.9375L140.038 14.0625H149.725L156.85 39.0625H157.225L164.413 14.0625H174.225L160.975 51.75C159.038 57.1875 155.35 60.75 148.163 60.75ZM190.462 48V2.75H208.212C218.525 2.75 224.4 8.5625 224.4 17.5C224.4 23.6875 221.556 28.1875 216.4 30.375L226.025 48H215.65L207.025 31.9375H199.837V48H190.462ZM199.837 24.3125H206.462C212.025 24.3125 214.712 22 214.712 17.5C214.712 12.9375 212.025 10.4375 206.462 10.4375H199.837V24.3125ZM243.925 48.6875C233.55 48.6875 227.175 41.9375 227.175 31.1875C227.175 20.6875 233.613 13.625 243.55 13.625C252.488 13.625 259.488 19.25 259.488 30.8125V33.4375H236.3C236.3 38.5625 239.363 41.75 244.113 41.75C247.238 41.75 249.488 40.375 250.425 38.3125H259.238C257.925 44.5625 252.3 48.6875 243.925 48.6875ZM236.3 27.625H250.738C250.738 23.5 247.863 20.5625 243.738 20.5625C239.488 20.5625 236.456 23.7188 236.3 27.625ZM278.95 48.6875C268.575 48.6875 262.325 41.5 262.325 31.125C262.325 20.75 268.638 13.625 278.95 13.625C287.7 13.625 293.638 18.75 294.013 26.5H285.325C284.763 23.125 282.575 20.8125 279.075 20.8125C274.638 20.8125 271.7 24.5625 271.7 31C271.7 37.5625 274.575 41.3125 279.075 41.3125C282.325 41.3125 284.763 39.3125 285.325 35.6875H294.013C293.575 43.375 287.95 48.6875 278.95 48.6875ZM298.163 48V14.0625H307.413V48H298.163ZM302.788 9.625C299.975 9.625 297.725 7.5 297.725 4.9375C297.725 2.3125 299.975 0.1875 302.788 0.1875C305.538 0.1875 307.788 2.3125 307.788 4.9375C307.788 7.5 305.538 9.625 302.788 9.625ZM313 60.75V14.0625H322.125V19.75H322.5C323.75 17 326.5 13.625 332.188 13.625C339.688 13.625 345.938 19.4375 345.938 31.0625C345.938 42.375 339.938 48.5625 332.188 48.5625C326.625 48.5625 323.812 45.375 322.5 42.5625H322.25V60.75H313ZM322.062 31C322.062 37.125 324.688 41.1875 329.25 41.1875C334 41.1875 336.5 37 336.5 31C336.5 25.0625 334 21 329.25 21C324.625 21 322.062 24.875 322.062 31ZM365.712 48.6875C355.337 48.6875 348.962 41.9375 348.962 31.1875C348.962 20.6875 355.4 13.625 365.337 13.625C374.275 13.625 381.275 19.25 381.275 30.8125V33.4375H358.087C358.087 38.5625 361.15 41.75 365.9 41.75C369.025 41.75 371.275 40.375 372.212 38.3125H381.025C379.712 44.5625 374.087 48.6875 365.712 48.6875ZM358.087 27.625H372.525C372.525 23.5 369.65 20.5625 365.525 20.5625C361.275 20.5625 358.244 23.7188 358.087 27.625Z" fill="#3C755F"/>
</svg>
